<?xml version="1.0" encoding="UTF-8" standalone="no"?>
<!-- Generator: Adobe Illustrator 15.1.0, SVG Export Plug-In . SVG Version: 6.00 Build 0)  -->

<svg
   xmlns:dc="http://purl.org/dc/elements/1.1/"
   xmlns:cc="http://creativecommons.org/ns#"
   xmlns:rdf="http://www.w3.org/1999/02/22-rdf-syntax-ns#"
   xmlns:svg="http://www.w3.org/2000/svg"
   xmlns="http://www.w3.org/2000/svg"
   xmlns:sodipodi="http://sodipodi.sourceforge.net/DTD/sodipodi-0.dtd"
   xmlns:inkscape="http://www.inkscape.org/namespaces/inkscape"
   version="1.1"
   id="Ebene_1"
   x="0px"
   y="0px"
   width="50px"
   height="50px"
   viewBox="0 0 50 50"
   enable-background="new 0 0 50 50"
   xml:space="preserve"
   sodipodi:docname="icon_search_only.svg"
   inkscape:version="0.92.5 (2060ec1f9f, 2020-04-08)"><metadata
   id="metadata9"><rdf:RDF><cc:Work
       rdf:about=""><dc:format>image/svg+xml</dc:format><dc:type
         rdf:resource="http://purl.org/dc/dcmitype/StillImage" /><dc:title></dc:title></cc:Work></rdf:RDF></metadata><defs
   id="defs7" /><sodipodi:namedview
   pagecolor="#ffffff"
   bordercolor="#666666"
   borderopacity="1"
   objecttolerance="10"
   gridtolerance="10"
   guidetolerance="10"
   inkscape:pageopacity="0"
   inkscape:pageshadow="2"
   inkscape:window-width="1868"
   inkscape:window-height="1016"
   id="namedview5"
   showgrid="false"
   inkscape:zoom="4.72"
   inkscape:cx="25"
   inkscape:cy="25"
   inkscape:window-x="52"
   inkscape:window-y="27"
   inkscape:window-maximized="1"
   inkscape:current-layer="Ebene_1" />
<path
   d="m 49.314938,42.140096 -0.299913,-0.300163 v 0 L 36.957604,29.772435 c 1.677636,-2.886726 2.647666,-6.233076 2.67344,-9.81393 C 39.701337,9.0072407 30.884377,0.07034975 19.939911,-3.7087501e-7 c -0.04217,0 -0.08435,0 -0.128865,0 C 8.9298443,-3.7087501e-7 0.07070948,8.7961875 4.1749976e-4,19.705242 -0.0698745,30.658854 8.744742,39.595744 19.689207,39.66375 c 0.04217,0 0.08434,0 0.128866,0 3.636438,0 7.043258,-0.987256 9.97912,-2.699123 l 12.043364,12.058116 v -0.0094 l 0.302254,0.302508 c 0.906767,0.914561 2.387585,0.90987 3.299037,0 l 3.870747,-3.873981 c 0.916139,-0.914559 0.916139,-2.39427 0.0024,-3.301794 z M 19.719665,34.605531 C 11.57985,34.553941 5.0028619,27.88469 5.0520662,19.735728 5.1036138,11.643047 11.72512,5.0558733 19.811043,5.0558733 h 0.09841 c 3.943381,0.023454 7.643084,1.5852372 10.410245,4.3945766 2.769505,2.8069941 4.280783,6.5285491 4.257352,10.4775711 -0.02811,3.93026 -1.576884,7.616639 -4.358103,10.383769 -2.783564,2.771819 -6.480923,4.293741 -10.39853,4.293741 h -0.100751 z"
   id="path2"
   inkscape:connector-curvature="0"
   style="fill:#ffffff;stroke-width:2.3440454" />
</svg>