<?xml version="1.0" encoding="UTF-8"?>
<!-- Generator: Adobe Illustrator 15.1.0, SVG Export Plug-In . SVG Version: 6.00 Build 0)  -->
<!DOCTYPE svg PUBLIC "-//W3C//DTD SVG 1.1//EN" "http://www.w3.org/Graphics/SVG/1.1/DTD/svg11.dtd">
<svg version="1.1" id="Ebene_1" xmlns="http://www.w3.org/2000/svg" xmlns:xlink="http://www.w3.org/1999/xlink" x="0px" y="0px" width="50px" height="50px" viewBox="0 0 50 50" enable-background="new 0 0 50 50" xml:space="preserve">
<path fill="#FFFFFF" d="M35.378,32.309l-0.128-0.128l0,0l-5.146-5.146c0.716-1.231,1.13-2.658,1.141-4.185  c0.03-4.67-3.733-8.481-8.404-8.511c-0.018,0-0.036,0-0.055,0c-4.644,0-8.425,3.751-8.455,8.403  c-0.03,4.671,3.732,8.482,8.403,8.511c0.018,0,0.036,0,0.055,0c1.552,0,3.006-0.421,4.259-1.151l5.14,5.142V35.24l0.129,0.129  c0.387,0.39,1.019,0.388,1.408,0l1.652-1.652C35.768,33.327,35.768,32.696,35.378,32.309z M22.747,29.096  c-3.474-0.022-6.281-2.866-6.26-6.341c0.022-3.451,2.848-6.26,6.299-6.26h0.042c1.683,0.01,3.262,0.676,4.443,1.874  c1.182,1.197,1.827,2.784,1.817,4.468c-0.012,1.676-0.673,3.248-1.86,4.428c-1.188,1.182-2.766,1.831-4.438,1.831H22.747z"/>
</svg>